<svg xmlns="http://www.w3.org/2000/svg" xmlns:android="http://schemas.android.com/apk/res/android"
    width="205" height="74" viewportWidth="205" viewportHeight="74">
    <path
        d="M28.49,11.24C28.49,14.42 29.58,17.06 31.77,19.16C33.95,21.26 36.66,22.31 39.89,22.31H40.06C43.29,22.31 46,21.26 48.18,19.16C50.36,17.06 51.45,14.42 51.45,11.24V11.08C51.45,7.9 50.37,5.25 48.18,3.15C46,1.05 43.29,0 40.06,0H39.89C36.66,0 33.95,1.05 31.77,3.15C29.58,5.25 28.49,7.9 28.49,11.08V11.24ZM36.42,46.08V47.53H41.84L50.81,28.29V26.84H29.15V31.85H43.13L36.42,46.08ZM29.47,73.09H77.49V73.08V68.07H35.12V52.39H29.47V73.09ZM45.79,11.24C45.79,13.02 45.25,14.47 44.14,15.6C43.03,16.73 41.67,17.3 40.06,17.3H39.89C38.28,17.3 36.92,16.73 35.81,15.6C34.71,14.47 34.16,13.02 34.16,11.24V11.08C34.16,9.3 34.71,7.84 35.81,6.71C36.92,5.57 38.28,5.01 39.89,5.01H40.06C41.67,5.01 43.03,5.58 44.14,6.71C45.24,7.84 45.79,9.3 45.79,11.08V11.24ZM70.69,42.2H55.01V47.21H76.35V0.65H70.69V42.2ZM14.43,27.97V26.51H9.09L0.04,71.63V73.08H21.71V68.07H6.59L14.43,27.97ZM21.71,20.21L5.7,0.65H0.36V21.67H6.03V9.3L15.88,21.67H21.71V20.21ZM150.58,73.09H102.55V42.93H143.79V31.85H102.23V26.84H149.45V47.78H108.22V68.08H150.58V73.09H150.58ZM123.58,0.65V21.35H102.56V0.65H108.22V6.23H117.92V0.65H123.58ZM117.92,16.33V11.23H108.22V16.33H117.92ZM143.79,21.67V0.65H149.45V21.67H143.79ZM162.54,73.57L178.87,2.43V2.42V0.97H157.2V5.99H172.4L157.2,72.12V73.57H162.54ZM198.76,0.65V73.41H204.42V0.65H198.76Z"
        fill="#ffffff" fill-rule="evenOdd" />
</svg>
