<?xml version="1.0"?>
<svg xmlns="http://www.w3.org/2000/svg" xmlns:android="http://schemas.android.com/apk/res/android"
    width="25" height="26" viewportWidth="25" viewportHeight="26">
    <path fill="#ffffff" fill-rule="evenOdd"
        d="M4.78745 3.71329C6.97632 1.92047 9.71923 0.942274 12.5486 0.945421C15.7869 0.947597 18.8917 2.23565 21.1806 4.52641C23.1813 6.52704 24.4263 9.15962 24.7033 11.9754C24.9803 14.7912 24.2721 17.6159 22.6996 19.968C21.1271 22.3201 18.7875 24.0541 16.0796 24.8743C13.3717 25.6946 10.4632 25.5503 7.84978 24.4661C5.23637 23.382 3.07984 21.425 1.7478 18.9288C0.415752 16.4326 -0.00936208 13.5517 0.54492 10.7771C1.0992 8.00256 2.59857 5.5061 4.78745 3.71329ZM5.82027 21.3442C7.71763 22.899 10.0955 23.7477 12.5486 23.7454C15.3546 23.7445 18.0454 22.6295 20.0296 20.6454C21.7653 18.9119 22.8459 16.6301 23.0874 14.1889C23.3289 11.7478 22.7163 9.29846 21.3539 7.25848C19.9916 5.21851 17.9638 3.7142 15.6164 3.002C13.269 2.2898 10.7473 2.41382 8.48107 3.35289C6.21487 4.29197 4.34453 5.98797 3.18889 8.15177C2.03325 10.3156 1.66386 12.8132 2.1437 15.2189C2.62354 17.6245 3.92291 19.7893 5.82027 21.3442ZM8.70761 20.3644L18.2076 12.4294L18.2076 12.4334C18.3156 12.3414 18.3696 12.2194 18.2616 12.0974C18.1231 11.9907 17.9512 11.9368 17.7766 11.9454L13.6216 11.9454L16.0496 6.20738C16.1036 6.05538 15.9416 5.90238 15.7256 5.84138C15.5023 5.80207 15.2723 5.84543 15.0786 5.96337L6.55261 13.0134C6.39061 13.0994 6.39061 13.2224 6.49861 13.3134C6.63684 13.4206 6.80886 13.4749 6.98361 13.4664L11.1356 13.4664L7.78961 20.0894C7.68161 20.2414 7.84361 20.3944 8.05961 20.4554C8.12863 20.4808 8.20223 20.4913 8.27561 20.4864C8.42933 20.4963 8.58181 20.4533 8.70761 20.3644Z" />
</svg>
