<?xml version="1.0"?>
<svg xmlns="http://www.w3.org/2000/svg" xmlns:android="http://schemas.android.com/apk/res/android"
    width="25" height="25" viewportWidth="25" viewportHeight="25">
    <path fill="#ffffff"
        d="M24.1769 18.7896H20.92V4.94757C20.92 4.73159 20.8342 4.5244 20.6816 4.37158C20.529 4.21877 20.3219 4.13283 20.1059 4.13257H6.26395V0.875549C6.26395 0.659663 6.17819 0.452642 6.02554 0.299988C5.87288 0.147333 5.66584 0.0615234 5.44995 0.0615234C5.23407 0.0615234 5.02702 0.147333 4.87437 0.299988C4.72171 0.452642 4.63596 0.659663 4.63596 0.875549V4.13257H1.37895C1.16293 4.13257 0.955765 4.21835 0.803017 4.37109C0.650268 4.52384 0.564453 4.731 0.564453 4.94702C0.564453 5.16304 0.650268 5.37026 0.803017 5.52301C0.955765 5.67576 1.16293 5.76154 1.37895 5.76154H4.63596V19.6025C4.63582 19.7095 4.65679 19.8154 4.69765 19.9142C4.73851 20.013 4.79846 20.1028 4.87408 20.1784C4.94969 20.254 5.03947 20.314 5.13829 20.3549C5.23711 20.3957 5.34302 20.4167 5.44995 20.4166H19.291V23.6735C19.291 23.8895 19.3768 24.0968 19.5295 24.2495C19.6823 24.4023 19.8894 24.488 20.1055 24.488C20.3215 24.488 20.5286 24.4023 20.6814 24.2495C20.8341 24.0968 20.92 23.8895 20.92 23.6735V20.4166H24.1769C24.3928 20.4166 24.5999 20.3308 24.7525 20.1782C24.9052 20.0255 24.991 19.8184 24.991 19.6025C24.991 19.3867 24.9052 19.1796 24.7525 19.027C24.5999 18.8743 24.3928 18.7896 24.1769 18.7896ZM6.26395 18.7896V5.76257H19.291V18.7896H6.26395Z" />
</svg>
