<svg xmlns="http://www.w3.org/2000/svg" xmlns:android="http://schemas.android.com/apk/res/android"
    width="297" height="430" viewportWidth="297" viewportHeight="430">
    <path
        d="M59.1,399.5L64.5,399.5L64.5,404.4L69.9,404.4L69.9,409.3L64.5,409.3L64.5,413.9L69.9,414.3L69.9,419.2L53.8,419.2L53.8,424.1L48.4,424.1L48.4,419.2L37.7,419.2L37.7,414.3L32.3,414.3L32.3,409.4L26.9,409.4L26.9,404.5L21.5,404.5L21.5,399.6L10.8,399.6L10.8,394.7L5.4,394.7L5.4,389.8L0,389.8L0,384.9L5.4,384.9L5.4,375L16.1,375L16.1,365.1L26.8,365.1L26.8,360.2L32.2,360.2C32.2,361.1 31.9,365.1 32.6,365.1L37.6,365.1L37.6,360.2L43,360.2L43,365.1L48.4,365.1L48.4,360.2L43,360.2L43,355.3L59.1,355.3L59.1,350.4L53.7,350.4L53.7,345.5C54.8,345.4 59.1,345.8 59.1,345.1L59.1,340.5L55,340.5L55,345.2L49.7,345.2L49.7,350.1L44.3,350.1L44.3,345.2L49.6,345.2L49.6,340.3L53.7,340.3L53.7,335.6L59.1,335.6L59.1,331L53.7,330.6L53.7,325.7L59.1,325.7L59.1,321.1L53.7,320.7L53.7,315.8L59.1,315.8L59.1,311.2L53.7,310.8L53.7,305.9L59.1,305.9L59.1,301L64.5,301L64.5,296.1C65.6,296.1 69.9,296.3 69.9,295.7L69.9,291.1L65.8,291.1L65.8,296L60.4,296L60.4,291.4C60.47,290.88 62.86,290.91 64.5,290.96L64.5,286.2L69.9,286.2L69.9,281.6L64.5,281.2L64.5,276.3L69.9,276.3L69.9,271.7L64.5,271.3L64.5,266.4L69.9,266.4L69.9,241.7L75.3,241.7L75.3,236.8L80.7,236.8L80.7,231.9L75.3,231.5L75.3,226.9L80.7,226.9L80.7,212.1L86.1,212.1L86.1,197.3L91.5,197.3L91.5,192.4L86.1,192L86.1,187.4L91.5,187L91.5,182.4L86.1,182.4L86.1,177.5L91.5,177.5L91.5,167.6L96.9,167.6L96.9,147.9L102.3,147.9L102.3,128.2L107.7,128.2L107.7,118.3L113.1,118.3L113.1,83.8L118.5,83.8L118.5,64.1L123.9,64.1L123.9,49.3L129.3,49.3L129.3,29.6L134.7,29.6L134.7,25L129.3,24.6L129.3,19.7L140,19.7L140,14.8L129.3,14.8L129.3,9.9L134.7,9.9L134.7,0L140.1,0L140.1,4.9L145.5,4.9L145.5,9.8L150.9,9.8L150.9,4.9L156.3,4.9L156.3,0L161.7,0L161.7,4.9L167.1,4.9L167.1,19.7L161.7,19.7L161.7,14.8L156.3,14.8L156.3,19.7L161.7,19.7L161.7,24.6L167.1,24.6L167.1,44.3L172.5,44.3L172.5,59.1L177.9,59.1L177.9,78.8L183.3,78.8L183.3,108.4L188.7,108.4L188.7,128.1L194.1,128.1L194.1,142.9L199.5,142.9L199.5,162.6L204.9,162.6L204.9,177.4L210.3,177.4L210.3,182.3L204.9,182.7L204.9,187.3L210.3,187.3L210.3,212L215.7,212L215.7,226.8L221.1,226.8L221.1,241.6L226.5,241.6L226.5,256.4L231.9,256.4L231.9,261.3L226.5,261.7L226.5,266.3L231.9,266.3L231.9,271.2L226.5,271.6L226.5,276.2L231.9,276.2L231.9,281.1L226.5,281.5L226.5,286.1L231.9,286.1L231.9,291L226.5,291L226.5,295.9L231.9,295.9L231.9,291L237.3,291L237.3,305.8L242.7,305.8L242.7,310.7L237.3,311.1L237.3,315.7L242.7,315.7L242.7,320.6C241.6,320.6 237.3,320.4 237.3,321L237.3,325.6L242.7,325.6L242.7,330.5L237.3,330.9L237.3,335.5L242.7,335.5L242.7,340.4L237.3,340.4L237.3,345C237.4,345.7 241.7,345.4 242.7,345.4L242.7,350.3L237.3,350.3L237.3,355.2L242.7,355.2L242.7,350.3L248.1,350.3L248.1,355.2L253.5,355.6L253.5,360.2L248.1,360.2L248.1,365.1L264.2,365.1L264.6,360.2L269.6,360.2L269.6,365.1L280.3,365.1L280.3,370L285.7,370L285.7,374.9L291.1,374.9L291.1,379.8L296.2,379.8L296.2,389.7L290.8,389.7L290.8,394.6L285.4,394.6L285.4,399.5L280,399.5L280,404.4L274.6,404.4L274.6,409.3L263.9,409.3L263.9,414.2L258.5,414.2L258.5,419.1L247.8,419.1L247.8,424L242.4,424L242.4,419.1L237,419.1L237,414.2L242.4,414.2L242.4,409.3L237,409.3L237,414.2L231.6,414.2L231.6,409.3L226.2,409.3L226.2,404.4L242.3,404.4L242.3,399.5L236.9,399.5L236.9,394.9L242.3,394.5L242.3,389.6L236.9,389.6L236.9,385L242.3,384.6L242.3,379.8L237.5,379.8L237.5,374.9L242.9,374.9L242.9,379.7L247.7,379.7L247.7,384.6L253.1,384.6L253.1,379.7L247.7,379.7L247.7,374.8L253.1,374.8L253.1,369.9L247.7,369.9L247.7,374.8L242.3,374.8C242.3,373.9 242.6,369.9 241.9,369.9L236.9,369.9L236.9,374.8L232.2,374.8L232.2,379.7L226.8,379.7L226.8,374.8L231.5,374.8L231.5,369.9L226.1,369.9L226.1,365L231.5,365L231.5,360.1L226.1,360.1L226.1,365L221.4,365L221.4,369.9L216,369.9L216,365L220.7,365L220.7,360.1L205.3,360.1L205.3,364.9L200.3,364.9C199.6,364.8 199.9,361 199.9,360L204.6,360L204.6,355.2L210,355.2L210,350.3L204.6,350.3L204.6,355.2L199.9,355.2L199.9,360L194.5,360L194.5,355.1L199.2,355.1C199.22,354.04 199.48,350.3 198.8,350.3L193.8,350.3L193.8,355.2L188.4,355.2L188.4,350.3L183,350.3L183,345.4L188.4,345.4L188.4,340.5L183,340.5L183,345.4L177.6,345.4L177.6,340.5L172.2,340.5L172.2,335.6L177.6,335.6L177.6,330.7L172.2,330.3L172.2,325.7L177.6,325.7L177.6,320.8L166.9,320.8L166.9,310.9L161.5,310.9L161.5,306.3L166.9,305.9L166.9,301L161.5,301L161.5,291.1L156.1,291.1L156.1,261.5L150.7,261.5L150.7,256.6L156.1,256.6L156.1,252L150.7,251.3L150.7,246.7L156.1,246.3L156.1,241.7L150.7,241.7L150.7,236.8L156.1,236.8L156.1,222L150.7,222L150.7,207.2L145.3,207.2L145.3,231.9L139.9,231.9L139.9,236.5L145.3,237.2L145.3,241.8L139.9,241.8L139.9,246.7L145.3,246.7L145.3,261.5L139.9,261.5L139.9,266.4L145.3,266.4L145.3,271L139.9,271.4L139.9,276L145.3,276.4L145.3,281.3L139.9,281.3L139.9,296.1L134.5,296.1L134.5,291.2L129.1,291.2L129.1,296.1L134.5,296.1L134.5,301C133.4,301 129.1,300.8 129.1,301.4L129.1,306L134.5,306L134.5,310.9L129.1,311.3L129.1,315.9L134.5,315.9L134.5,320.8L118.4,320.8L118.4,325.7L123.8,325.7L123.8,330.6C122.7,330.6 118.4,330.4 118.4,331L118.4,335.6L123.8,335.6L123.8,340.5L118.4,340.5L118.4,345.4L113,345.4L113,340.5L107.6,340.5L107.6,345.4L113,345.4L113,350.3L107.6,350.3L107.6,355.2L103.4,355.2L103.4,360L98,360L98,355.1L102.2,355.1L102.2,350.3L97.2,350.3C96.5,350.4 96.8,354.2 96.8,355.2L91.4,355.2L91.4,350.3L86,350.3L86,355.2L91.4,355.2L91.4,360.1L75.3,360.1L75.3,365L69.9,365L69.9,360.1L64.5,360.1L64.5,365L69.9,365L69.9,369.9L64.5,369.9L64.5,374.8L59.1,374.8L59.1,369.9L53.7,369.9L53.7,374.8L59.1,374.8L59.1,379.7L53.7,380.1L53.7,384.7L59.1,384.7L59.1,389.6C58,389.6 53.7,389.4 53.7,390L53.7,394.6L59.1,394.6L59.1,399.5L53.7,399.5L53.7,404.4L59.1,404.4L59.1,399.5ZM98,360L98,364.9L93,364.9C92.3,364.8 92.6,361 92.6,360L98,360ZM81.9,345.2L81.9,340.3L76.5,340.3L76.5,345.2L81.9,345.2ZM71.2,345.2L71.2,340.3L65.8,340.3L65.8,345.2L71.2,345.2ZM81.9,355.1L81.9,350.2L76.5,350.2L76.5,355.1L81.9,355.1ZM157,138L157,133.4L151.6,132.7L151.6,128.1L157,128.1L157,123.2L151.6,123.2L151.6,59L146.2,59L146.2,167.6L151.6,167.6L151.6,147.9L157,147.9L157,143L151.6,143L151.6,138.4L157,138ZM49.7,374.9L49.7,370L44.3,370L44.3,374.9L49.7,374.9ZM178.5,315.6L178.5,310.7L173.1,310.7L173.1,315.6L178.5,315.6ZM49.7,384.7L49.7,379.8L44.3,379.8L44.3,384.7L49.7,384.7ZM242.9,365L242.9,360.1L237.5,360.1L237.5,365L242.9,365ZM189.2,335.4L189.2,330.5L183.8,330.5L183.8,335.4L189.2,335.4ZM178.5,305.8L178.5,300.9L173.1,300.9L173.1,305.8L178.5,305.8ZM232.1,335.4L232.1,330.5L226.7,330.5L226.7,335.4L232.1,335.4ZM210.7,345.2L210.7,340.3L205.3,340.3L205.3,345.2L210.7,345.2ZM221.4,355.1L221.4,350.2L216,350.2L216,355.1L221.4,355.1ZM146.3,24.5L146.3,34.4L151.7,34.4L151.7,24.5L146.3,24.5ZM124.8,305.8L124.8,300.9L119.4,300.9L119.4,305.8L124.8,305.8ZM71.2,325.5L71.2,320.6L65.8,320.6L65.8,325.5L71.2,325.5ZM103.4,345.2L103.4,340.3L98,340.3L98,345.2L103.4,345.2ZM189.2,325.5L189.2,320.6L183.8,320.6L183.8,325.5L189.2,325.5ZM199.9,345.2L199.9,340.3L194.5,340.3L194.5,345.2L199.9,345.2ZM81.9,335.4L81.9,330.5L76.5,330.5L76.5,335.4L81.9,335.4ZM232.1,345.2L232.1,340.3L226.7,340.3L226.7,345.2L232.1,345.2ZM71.2,355.1L71.2,350.2L65.8,350.2L65.8,355.1L71.2,355.1ZM232.1,355.1L232.1,350.2L226.7,350.2L226.7,355.1L232.1,355.1ZM71.2,335.4L71.2,330.5L65.8,330.5L65.8,335.4L71.2,335.4ZM232.1,325.5L232.1,320.6L226.7,320.6L226.7,325.5L232.1,325.5ZM221.4,335.4L221.4,330.5L216,330.5L216,335.4L221.4,335.4ZM221.4,345.2L221.4,340.3L216,340.3L216,345.2L221.4,345.2ZM60.4,365L60.4,360.1L55,360.1L55,365L60.4,365ZM55,409.4L55,414.3L60.4,414.3L60.4,409.4L55,409.4ZM124.8,315.6L124.8,310.7L119.4,310.7L119.4,315.6L124.8,315.6ZM114.1,335.4L114.1,330.5L108.7,330.5L108.7,335.4L114.1,335.4ZM92.6,345.2L92.6,340.3L87.2,340.3L87.2,345.2L92.6,345.2ZM248.2,345.2L242.9,345.2L242.9,340.3L248.3,340.3L248.3,345.2L253.6,345.2L253.6,349.8C253.5,350.5 249.2,350.2 248.2,350.2L248.2,345.2ZM242.9,325.5L242.9,320.5L248.3,320.5L248.3,325.1C248.2,325.8 243.9,325.5 242.9,325.5ZM38.9,360L33.5,360L33.5,355.1L38.5,355.1C39.2,355.1 38.9,359.1 38.9,360ZM60.4,429.1L55,429.1L55,424.2L60.4,424.2L60.4,429.1ZM81.9,369.9L76.5,369.9L76.5,365L81.9,365L81.9,369.9ZM71.2,379.8L65.8,379.8L65.8,374.9L71.2,374.9L71.2,379.8ZM237.5,424.2L242.9,424.2L242.9,429.1L237.5,429.1L237.5,424.2ZM124.8,335.4L124.8,330.4L130.2,330.4L130.2,335C130.1,335.7 125.8,335.4 124.8,335.4ZM135.5,305.8L135.5,300.8L140.9,300.8L140.9,305.4C140.8,306.1 136.5,305.8 135.5,305.8ZM60.4,394.6L60.4,389.6L65.8,389.6L65.8,394.2C65.7,394.9 61.4,394.6 60.4,394.6Z"
        fill="#ffffff" />
</svg>
