<svg xmlns="http://www.w3.org/2000/svg" xmlns:android="http://schemas.android.com/apk/res/android"
    width="233" height="76" viewportWidth="233" viewportHeight="76">
    <path
        d="M221.03,70.03C222.67,70.03 224.04,69.45 225.13,68.31C226.28,67.16 226.86,65.68 226.86,63.88L226.86,63.71C226.86,61.91 226.28,60.43 225.13,59.29C224.04,58.14 222.67,57.56 221.03,57.56L220.87,57.56C219.23,57.56 217.84,58.14 216.69,59.29C215.6,60.43 215.05,61.91 215.05,63.71L215.05,63.88C215.05,65.68 215.6,67.16 216.69,68.31C217.84,69.45 219.23,70.03 220.87,70.03L221.03,70.03ZM220.87,75.11C218.74,75.11 216.77,74.62 214.97,73.64C213.22,72.65 211.82,71.29 210.78,69.54C209.8,67.84 209.31,65.96 209.31,63.88L209.31,63.71C209.31,61.64 209.8,59.75 210.78,58.06C211.82,56.31 213.22,54.94 214.97,53.96C216.77,52.97 218.74,52.48 220.87,52.48L221.03,52.48C223.17,52.48 225.11,52.97 226.86,53.96C228.66,54.94 230.05,56.31 231.04,58.06C232.08,59.75 232.6,61.64 232.6,63.71L232.6,63.88C232.6,65.96 232.08,67.84 231.04,69.54C230.05,71.29 228.66,72.65 226.86,73.64C225.11,74.62 223.17,75.11 221.03,75.11L220.87,75.11ZM217.34,48.22L217.34,46.74L224.15,32.31L209.96,32.31L209.96,27.22L231.94,27.22L231.94,28.7L222.84,48.22L217.34,48.22ZM231.94,0.98L231.94,6.07L219.48,6.07L231.94,20.5L231.94,21.98L225.87,21.98L216.03,10.41L216.03,21.98L210.29,21.98L210.29,0.98L231.94,0.98Z"
        fill="#ffffff" fill-rule="nonZero" />
    <path
        d="M166.46,0.66L182.69,20.5L182.69,21.98L176.79,21.98L166.78,9.43L166.78,21.98L161.04,21.98L161.04,0.66L166.46,0.66ZM175.31,26.9L175.31,28.37L168.59,42.8L182.69,42.8L182.69,47.89L160.72,47.89L160.72,46.41L169.82,26.9L175.31,26.9ZM171.79,70.03C173.43,70.03 174.79,69.45 175.89,68.31C177.03,67.16 177.61,65.68 177.61,63.88L177.61,63.71C177.61,61.91 177.03,60.43 175.89,59.29C174.79,58.14 173.43,57.56 171.79,57.56L171.62,57.56C169.98,57.56 168.59,58.14 167.44,59.29C166.35,60.43 165.8,61.91 165.8,63.71L165.8,63.88C165.8,65.68 166.35,67.16 167.44,68.31C168.59,69.45 169.98,70.03 171.62,70.03L171.79,70.03ZM171.62,75.11C169.49,75.11 167.52,74.62 165.72,73.64C163.97,72.65 162.58,71.29 161.54,69.54C160.55,67.84 160.06,65.96 160.06,63.88L160.06,63.71C160.06,61.64 160.55,59.75 161.54,58.06C162.58,56.31 163.97,54.94 165.72,53.96C167.52,52.97 169.49,52.48 171.62,52.48L171.79,52.48C173.92,52.48 175.86,52.97 177.61,53.96C179.41,54.94 180.81,56.31 181.79,58.06C182.83,59.75 183.35,61.64 183.35,63.71L183.35,63.88C183.35,65.96 182.83,67.84 181.79,69.54C180.81,71.29 179.41,72.65 177.61,73.64C175.86,74.62 173.92,75.11 171.79,75.11L171.62,75.11Z"
        fill="#ffffff" fill-rule="nonZero" />
    <path
        d="M126.96,0.98L126.96,6.07L114.49,6.07L126.96,20.5L126.96,21.98L120.89,21.98L111.05,10.41L111.05,21.98L105.31,21.98L105.31,0.98L126.96,0.98ZM152.87,48.22L147.13,48.22L147.13,6.07L131.22,6.07L131.22,0.98L152.87,0.98L152.87,48.22ZM154.02,74.13L105.31,74.13L105.31,26.9L111.05,26.9L111.05,69.04L154.02,69.04L154.02,74.13Z"
        fill="#ffffff" fill-rule="nonZero" />
    <path
        d="M40.62,17.55C42.26,17.55 43.63,16.97 44.72,15.83C45.87,14.68 46.44,13.2 46.44,11.4L46.44,11.23C46.44,9.43 45.87,7.95 44.72,6.81C43.63,5.66 42.26,5.08 40.62,5.08L40.45,5.08C38.81,5.08 37.42,5.66 36.27,6.81C35.18,7.95 34.63,9.43 34.63,11.23L34.63,11.4C34.63,13.2 35.18,14.68 36.27,15.83C37.42,16.97 38.81,17.55 40.45,17.55L40.62,17.55ZM40.45,22.63C37.17,22.63 34.41,21.57 32.17,19.43C29.99,17.3 28.89,14.62 28.89,11.4L28.89,11.23C28.89,8.01 29.99,5.33 32.17,3.2C34.41,1.07 37.17,0 40.45,0L40.62,0C43.9,0 46.63,1.07 48.82,3.2C51.06,5.33 52.18,8.01 52.18,11.23L52.18,11.4C52.18,14.62 51.06,17.3 48.82,19.43C46.63,21.57 43.9,22.63 40.62,22.63L40.45,22.63ZM55.79,42.8L71.7,42.8L71.7,0.66L77.44,0.66L77.44,47.89L55.79,47.89L55.79,42.8ZM36.93,48.22L36.93,46.74L43.73,32.31L29.55,32.31L29.55,27.22L51.52,27.22L51.52,28.7L42.42,48.22L36.93,48.22ZM78.58,74.13L29.88,74.13L29.88,53.14L35.62,53.14L35.62,69.04L78.58,69.04L78.58,74.13Z"
        fill="#ffffff" fill-rule="nonZero" />
    <path
        d="M14.6,26.9L14.6,28.37L6.64,69.04L21.98,69.04L21.98,74.13L0,74.13L0,72.65L9.18,26.9L14.6,26.9ZM5.74,0.66L21.98,20.5L21.98,21.98L16.07,21.98L6.07,9.43L6.07,21.98L0.33,21.98L0.33,0.66L5.74,0.66Z"
        fill="#ffffff" fill-rule="nonZero" />
</svg>
