<svg xmlns="http://www.w3.org/2000/svg" xmlns:android="http://schemas.android.com/apk/res/android"
    width="335" height="163" viewportWidth="335" viewportHeight="163">
    <path
        d="M144.11,22.63H144.27C150.75,22.63 155.83,17.87 155.83,11.4V11.23C155.83,4.76 150.75,0 144.27,0H144.11C137.63,0 132.55,4.76 132.55,11.23V11.4C132.55,17.87 137.63,22.63 144.11,22.63ZM138.29,11.23C138.29,7.63 140.83,5.09 144.11,5.09H144.27C147.55,5.09 150.1,7.63 150.1,11.23V11.4C150.1,15.01 147.55,17.55 144.27,17.55H144.11C140.83,17.55 138.29,15 138.29,11.4V11.23ZM119.76,21.97L109.76,9.43V21.97H104.02V0.66H109.43L125.66,20.5V21.97H119.76ZM110.33,69.03H125.66V74.11H103.69V72.63L112.88,26.89H118.29V28.37L110.33,69.03ZM140.58,48.2H146.07L155.17,28.69V27.22H133.2V32.3H147.39L140.58,46.73V48.2ZM175.34,0.66H181.08V47.88H159.44V42.79H175.34V0.66ZM133.53,53.12H139.27V69.03H182.22V74.11H133.53V53.12ZM236.82,0.66H231.08V74.43H236.82V0.66ZM211.57,11.23V11.4C211.57,17.87 206.49,22.63 200.01,22.63H199.85C193.37,22.63 188.29,17.87 188.29,11.4V11.23C188.29,4.76 193.37,0 199.85,0H200.01C206.49,0 211.57,4.76 211.57,11.23ZM200.01,17.55C203.29,17.55 205.84,15.01 205.84,11.4V11.23C205.84,7.63 203.29,5.09 200.01,5.09H199.85C196.57,5.09 194.03,7.63 194.03,11.23V11.4C194.03,15 196.57,17.55 199.85,17.55H200.01ZM48.53,89.23H42.79V163H48.53V89.23ZM11.56,88.57H11.72C18.2,88.57 23.28,93.33 23.28,99.8V99.97C23.28,106.44 18.2,111.2 11.72,111.2H11.56C5.08,111.2 0,106.44 0,99.97V99.8C0,93.33 5.08,88.57 11.56,88.57ZM11.72,106.11C15,106.11 17.55,103.57 17.55,99.96V99.8C17.55,96.2 15,93.65 11.72,93.65H11.56C8.28,93.65 5.74,96.19 5.74,99.8V99.96C5.74,103.57 8.28,106.11 11.56,106.11H11.72ZM56.4,120.87H71.9L63.78,161.53V163H69.27L78.37,117.26V115.79H56.4V120.87ZM78.04,101.93H62.47V105.29H78.37V110.21H56.73V97.51H72.31V94.47H56.4V89.56H78.04V101.93ZM96.98,88.57H96.81C90.34,88.57 85.25,93.33 85.25,99.8V99.97C85.25,106.44 90.34,111.2 96.81,111.2H96.98C103.45,111.2 108.54,106.44 108.54,99.97V99.8C108.54,93.33 103.46,88.57 96.98,88.57ZM102.8,99.96C102.8,103.57 100.26,106.11 96.98,106.11H96.81C93.53,106.11 90.99,103.57 90.99,99.96V99.8C90.99,96.19 93.53,93.65 96.81,93.65H96.98C100.26,93.65 102.8,96.2 102.8,99.8V99.96ZM128.04,94.64H112.14V89.56H133.79V163H128.04V94.64ZM223.22,115.38H201.25V120.46H223.22V115.38ZM201.58,110.54V89.23H206.99L223.22,109.07V110.54H217.32L207.32,98V110.54H201.58ZM217.16,139.15H207.32V125.29H201.59V162.67H222.9V125.29H217.16V139.15ZM217.16,157.59H207.32V144.07H217.16V157.59ZM231.09,89.23H236.83V157.59H252.73V162.68H231.09V89.23ZM278.63,89.23H272.89V163H278.63V89.23ZM308.47,162.68H286.83V89.56H308.47V94.64H292.57V157.59H308.47V162.68ZM313.06,89.56V163H318.8V94.64H334.7V89.56H313.06ZM151.58,110.54H145.84V94.64H140.33V89.56H145.84H167.48V94.64H155.02L167.48,109.07V110.54H161.41L151.58,98.98V110.54ZM193.38,110.54V89.56H171.74V94.64H187.64V99.39H171.74V104.47H187.64V110.54H193.38ZM169.61,150.95L177.64,115.46H183.71L193.71,161.53V163H188.3L180.59,126.52L172.23,163H166.99L158.63,126.52L150.92,163H145.51V161.53L155.51,115.46H161.58L169.61,150.95Z"
        fill="#ffffff" fill-rule="evenOdd" />
</svg>
